# xmcd
#
# Track frame offsets:
#	330
#	11934
#	26607
#	37194
#	50173
#	64182
#	74933
#	87381
#
# Disc length: 1371 seconds
#
# Revision: 0
# Processed by: cddbd v1.5.1PL0 Copyright (c) Steve Scherf et al.
# Submitted via: audiograbber 1.83.01
#
DISCID=7f055708
DTITLE=Second Chance Blues - Small Change
DYEAR=1900
DGENRE=Jazz
TTITLE0=Standing in the Wrong Line
TTITLE1=Watch the Door
TTITLE2=Change of Heart, Change of Mind
TTITLE3=Sell My Monkey
TTITLE4=The Jam
TTITLE5=Mean Mistreater
TTITLE6=Sake of Argument
TTITLE7=Nickel and Diming
EXTD=
EXTT0=
EXTT1=
EXTT2=
EXTT3=
EXTT4=
EXTT5=
EXTT6=
EXTT7=
PLAYORDER=
